<?xml version="1.0" encoding="UTF-8" standalone="no"?>
<!DOCTYPE svg PUBLIC "-//W3C//DTD SVG 1.1//EN" "http://www.w3.org/Graphics/SVG/1.1/DTD/svg11.dtd">
<svg width="100%" height="100%" viewBox="0 0 18 24" version="1.1" xmlns="http://www.w3.org/2000/svg" xmlns:xlink="http://www.w3.org/1999/xlink" xml:space="preserve" xmlns:serif="http://www.serif.com/" style="fill-rule:evenodd;clip-rule:evenodd;stroke-linejoin:round;stroke-miterlimit:2;">
    <g transform="matrix(1,0,0,1,-1495.5,-13.128)">
        <g transform="matrix(1,0,0,1.60515,0,0)">
            <g transform="matrix(1,0,0,0.622994,-48,4.98396)">
                <g transform="matrix(36,0,0,36,1542.28,28.528)">
                    <path d="M0.106,-0.18L0.034,-0.18L0.034,-0.288L0.118,-0.288L0.13,-0.384L0.054,-0.384L0.054,-0.492L0.144,-0.492L0.164,-0.65L0.26,-0.65L0.242,-0.492L0.334,-0.492L0.354,-0.65L0.45,-0.65L0.432,-0.492L0.51,-0.492L0.51,-0.384L0.418,-0.384L0.406,-0.288L0.49,-0.288L0.49,-0.18L0.394,-0.18L0.372,-0L0.274,-0L0.296,-0.18L0.204,-0.18L0.182,-0L0.084,-0L0.106,-0.18ZM0.308,-0.288L0.32,-0.384L0.228,-0.384L0.216,-0.288L0.308,-0.288Z" style="fill:white;fill-rule:nonzero;"/>
                </g>
            </g>
        </g>
    </g>
</svg>
