<?xml version="1.0" encoding="UTF-8" standalone="no"?>
<!DOCTYPE svg PUBLIC "-//W3C//DTD SVG 1.1//EN" "http://www.w3.org/Graphics/SVG/1.1/DTD/svg11.dtd">
<svg width="100%" height="100%" viewBox="0 0 32 32" version="1.1" xmlns="http://www.w3.org/2000/svg" xmlns:xlink="http://www.w3.org/1999/xlink" xml:space="preserve" xmlns:serif="http://www.serif.com/" style="fill-rule:evenodd;clip-rule:evenodd;stroke-linejoin:round;stroke-miterlimit:2;">
    <g>
        <g transform="matrix(1,0,0,1,-0.1125,-0.009)">
            <path d="M0.936,0.732L0.936,31.252L3.13,31.252L3.13,31.984L0.095,31.984L0.095,0.004L3.129,0.004L3.129,0.736L0.936,0.732Z" style="fill:white;fill-rule:nonzero;"/>
        </g>
        <g transform="matrix(1,0,0,1,0.8645,0)">
            <path d="M9.386,10.407L9.386,11.951L9.43,11.951C9.814,11.387 10.323,10.919 10.917,10.583C11.497,10.26 12.162,10.098 12.91,10.098C13.63,10.098 14.287,10.238 14.882,10.518C15.477,10.797 15.929,11.289 16.237,11.995C16.575,11.495 17.033,11.054 17.614,10.672C18.194,10.289 18.88,10.098 19.674,10.098C20.276,10.098 20.834,10.172 21.348,10.318C21.862,10.466 22.302,10.701 22.67,11.025C23.036,11.348 23.323,11.771 23.529,12.293C23.734,12.815 23.837,13.443 23.837,14.18L23.837,21.813L20.71,21.813L20.71,15.349C20.71,14.966 20.695,14.606 20.666,14.267C20.645,13.96 20.563,13.66 20.424,13.385C20.291,13.134 20.088,12.927 19.84,12.789C19.583,12.643 19.234,12.569 18.793,12.569C18.353,12.569 17.997,12.654 17.725,12.822C17.453,12.992 17.24,13.212 17.086,13.484C16.927,13.771 16.822,14.086 16.778,14.411C16.726,14.758 16.7,15.108 16.7,15.459L16.7,21.813L13.572,21.813L13.572,15.415C13.572,15.077 13.565,14.742 13.551,14.411C13.54,14.097 13.476,13.788 13.363,13.495C13.255,13.218 13.063,12.983 12.813,12.822C12.555,12.654 12.177,12.569 11.678,12.569C11.48,12.577 11.284,12.611 11.094,12.669C10.836,12.743 10.596,12.871 10.389,13.043C10.161,13.227 9.967,13.492 9.805,13.837C9.644,14.183 9.563,14.635 9.563,15.194L9.563,21.813L6.434,21.813L6.434,10.403L9.386,10.407Z" style="fill:white;fill-rule:nonzero;"/>
        </g>
        <g transform="matrix(1,0,0,1,-42.939,0)">
            <path d="M74.098,31.247L74.098,0.727L71.904,0.727L71.904,-0.005L74.939,-0.005L74.939,31.975L71.904,31.975L71.904,31.243L74.098,31.247Z" style="fill:white;fill-rule:nonzero;"/>
        </g>
    </g>
</svg>
